# xmcd
#
# Track frame offsets:
#	150
#	14781
#	30286
#	45728
#	59956
#	75054
#	86955
#	106805
#	120520
#	139200
#	151197
#	184944
#
# Disc length: 4336 seconds
#
# Revision: 1
# Processed by: cddbd v1.5.2PL0 Copyright (c) Steve Scherf et al.
# Submitted via: audiograbber 1.83.01
#
DISCID=9810ee0c
DTITLE=Sugar Mountain - Sugar in the raw
DYEAR=2006
DGENRE=
TTITLE0=1964
TTITLE1=Not your business
TTITLE2=Downhearted Girl
TTITLE3=Good thing's gone
TTITLE4=Foolish Game
TTITLE5=Back on Track
TTITLE6=You can't hide
TTITLE7=Black Cat Woman
TTITLE8=Queen of the blues
TTITLE9=Let it shine
TTITLE10=Running Around
TTITLE11=Daten-CD
EXTD=
EXTT0=
EXTT1=
EXTT2=
EXTT3=
EXTT4=
EXTT5=
EXTT6=
EXTT7=
EXTT8=
EXTT9=
EXTT10=
EXTT11=
PLAYORDER=
